<svg id="visual" viewBox="0 0 900 600" width="900" height="600" xmlns="http://www.w3.org/2000/svg" xmlns:xlink="http://www.w3.org/1999/xlink" version="1.1"><rect x="0" y="0" width="900" height="600" fill="#001220"></rect><path d="M0 365L21.5 364.5C43 364 86 363 128.8 361.8C171.7 360.7 214.3 359.3 257.2 367.2C300 375 343 392 385.8 401.2C428.7 410.3 471.3 411.7 514.2 416.7C557 421.7 600 430.3 642.8 424.7C685.7 419 728.3 399 771.2 393C814 387 857 395 878.5 399L900 403L900 601L878.5 601C857 601 814 601 771.2 601C728.3 601 685.7 601 642.8 601C600 601 557 601 514.2 601C471.3 601 428.7 601 385.8 601C343 601 300 601 257.2 601C214.3 601 171.7 601 128.8 601C86 601 43 601 21.5 601L0 601Z" fill="#efdf67"></path><path d="M0 400L21.5 409.2C43 418.3 86 436.7 128.8 449.5C171.7 462.3 214.3 469.7 257.2 472.8C300 476 343 475 385.8 461.8C428.7 448.7 471.3 423.3 514.2 414C557 404.7 600 411.3 642.8 421.7C685.7 432 728.3 446 771.2 449.8C814 453.7 857 447.3 878.5 444.2L900 441L900 601L878.5 601C857 601 814 601 771.2 601C728.3 601 685.7 601 642.8 601C600 601 557 601 514.2 601C471.3 601 428.7 601 385.8 601C343 601 300 601 257.2 601C214.3 601 171.7 601 128.8 601C86 601 43 601 21.5 601L0 601Z" fill="#f2bb46"></path><path d="M0 454L21.5 461.3C43 468.7 86 483.3 128.8 487.3C171.7 491.3 214.3 484.7 257.2 481.5C300 478.3 343 478.7 385.8 483.7C428.7 488.7 471.3 498.3 514.2 494.7C557 491 600 474 642.8 467.5C685.7 461 728.3 465 771.2 472C814 479 857 489 878.5 494L900 499L900 601L878.5 601C857 601 814 601 771.2 601C728.3 601 685.7 601 642.8 601C600 601 557 601 514.2 601C471.3 601 428.7 601 385.8 601C343 601 300 601 257.2 601C214.3 601 171.7 601 128.8 601C86 601 43 601 21.5 601L0 601Z" fill="#f29432"></path><path d="M0 520L21.5 516.3C43 512.7 86 505.3 128.8 505.7C171.7 506 214.3 514 257.2 511.8C300 509.7 343 497.3 385.8 498.5C428.7 499.7 471.3 514.3 514.2 515.2C557 516 600 503 642.8 496.5C685.7 490 728.3 490 771.2 495.2C814 500.3 857 510.7 878.5 515.8L900 521L900 601L878.5 601C857 601 814 601 771.2 601C728.3 601 685.7 601 642.8 601C600 601 557 601 514.2 601C471.3 601 428.7 601 385.8 601C343 601 300 601 257.2 601C214.3 601 171.7 601 128.8 601C86 601 43 601 21.5 601L0 601Z" fill="#ee6a2e"></path><path d="M0 537L21.5 538C43 539 86 541 128.8 542.2C171.7 543.3 214.3 543.7 257.2 548.5C300 553.3 343 562.7 385.8 565C428.7 567.3 471.3 562.7 514.2 558.7C557 554.7 600 551.3 642.8 546.2C685.7 541 728.3 534 771.2 531.5C814 529 857 531 878.5 532L900 533L900 601L878.5 601C857 601 814 601 771.2 601C728.3 601 685.7 601 642.8 601C600 601 557 601 514.2 601C471.3 601 428.7 601 385.8 601C343 601 300 601 257.2 601C214.3 601 171.7 601 128.8 601C86 601 43 601 21.5 601L0 601Z" fill="#e53636"></path></svg>